<svg xmlns="http://www.w3.org/2000/svg" width="1925.568" height="1080.443" viewBox="0 0 1925.568 1080.443">
  <g id="layered-waves-haikei" transform="translate(4.229)" opacity="0.7">
    <rect id="Rectangle_2542" data-name="Rectangle 2542" width="1920" height="1079" fill="#ececef"/>
    <path id="Path_2405" data-name="Path 2405" d="M0-289.944c56.783-1.238,48.137,329.6,211.678,498.2S482.16,532.2,573.68,532.4c91.307.2,35.113-47.431,126.42-47.931,91.52-.5,216.394,62.619,307.914,57.419,91.307-5.2,148.779-55.719,240.086-57.419,91.52-1.7,116.228-12.5,207.748,0,91.307,12.5,250.167-3.459,367.292-109.789S1920,263.279,1920,601H1645.227c-91.52,0-226.6-43.129-318.117-43.129C1235.8,557.871,1188.267,601,1096.96,601H823.04c-91.307,0-179.843-21.36-271.149-21.36-91.52,0-185.6,21.36-277.117,21.36H0Z" transform="translate(0 479)" fill="#d2e7d7"/>
    <path id="Path_2406" data-name="Path 2406" d="M0,100.583c91.733,6,138.471,173.909,229.777,175.609C321.3,277.792,402,600.7,493.516,601c91.307.3,137.049-46.083,228.355-44.583,91.52,1.5,158.271,29.6,249.791,24.3,91.307-5.3,323.609-36.087,414.916-32.187,91.52,3.8,167.129-108.531,258.649-104.031,91.307,4.5,183.04-4.5,228.907-9L1920,431V601H1364.706c-91.307,0-227.3-20.282-318.61-20.282C954.576,580.718,914.56,601,823.04,601H0Z" transform="translate(0 479)" fill="#bee3c6"/>
    <path id="Path_2407" data-name="Path 2407" d="M-4.229,277.322C87.5,304.329,174.148,479.159,174.148,479.159s251.544,227.592,343.064,228.6c91.307.866,87.887,42.649,179.193,37.017,91.52-5.488,133.964-92.582,225.484-109.191,91.307-16.608,245.389,27.936,336.7,29.669,91.52,1.589,295.121-147.651,386.641-132.776,91.307,14.875,183.04,40,228.907,52.425L1920,597.47V744.779H823.04c-14.153,0-43.462-8.464-43.462-8.464S612.98,614.622,535.826,614.622c-91.52,0-169.533,130.157-261.053,130.157H0Z" transform="translate(0 335.06)" fill="#abdfb5"/>
    <path id="Path_2408" data-name="Path 2408" d="M0,395.276c91.733-4.093,170.791,265.12,262.1,269.213,91.52,4.093,195.076,104.36,286.6,101.9C640,764.142,731.733,814.907,823.04,816.34c91.52,1.432,182.4-38.759,273.92-27.5,91.307,11.256,172.944-33.287,264.251-43.315,91.52-9.823,192.5-94.949,284.016-111.73,91.307-16.577,183.04-27.628,228.907-32.949L1920,595.317V816.34H0Z" transform="translate(0 262.516)" fill="#98dba3"/>
    <path id="Path_2409" data-name="Path 2409" d="M0,399.733C91.733,373.52,183.467,674.913,274.773,675.08c91.52.334,193.933,50.089,285.453,61.776,91.307,11.687,103.2-53.428,194.5-58.437,91.52-5.009,250.711,42.4,342.232,30.379,91.307-11.854,197.862,2.671,289.169,0,91.52-2.838,167.578-77.128,259.1-65.441,91.307,11.687,183.04,23.375,228.907,29.219L1920,678.419v58.437H0Z" transform="translate(0 342.186)" fill="#86d690"/>
  </g>
</svg>
