<svg xmlns="http://www.w3.org/2000/svg" width="1920" height="1082.319" viewBox="0 0 1920 1082.319">
  <g id="layered-waves-haikei" transform="translate(0)" opacity="0.7">
    <rect id="Rectangle_2542" data-name="Rectangle 2542" width="1920" height="1079" fill="#ececef"/>
    <path id="Path_2407" data-name="Path 2407" d="M0,497.664c24.468,6.875,40-39.876,180.385-13.71S425.693,588.011,517.213,588.614c91.307.517,87.887,25.466,179.193,22.1,91.52-3.277,133.964-55.281,225.484-65.2,91.307-9.917,245.389,16.68,336.7,17.715,91.52.948,232.754-54.864,386.641-66.858s224,3.556,269.865,10.972l4.909,15.41v87.958H823.04c-14.153,0-43.462-5.054-43.462-5.054S612.98,533,535.826,533c-91.52,0-169.533,77.717-261.053,77.717H0Z" transform="translate(0 469.332)" fill="#abdfb5"/>
    <path id="Path_2408" data-name="Path 2408" d="M0,553.967c91.733-2.308,170.791,36.7,262.1,39.005,91.52,2.308,195.076,58.847,286.6,57.462,23.922-.333,47.874,1.387,72.009,4.14,47.742,5.446,127.895-21.219,176-15.909,8.522.941,158.408,12.162,152.725,24.425C942.414,678.234,812.059,678.5,823.04,678.6c91.52.808,182.4-21.855,273.92-15.508,91.307,6.347,172.944-18.77,264.251-24.425,91.52-5.539,192.5-53.54,284.016-63,91.307-9.347,100.2,19.056,168.89,22.215S1920,588.3,1920,588.3v90.3H0Z" transform="translate(0 403.699)" fill="#98dba3"/>
    <path id="Path_2409" data-name="Path 2409" d="M0,466.857c91.733-14.823,183.467,87.78,274.773,87.874,91.52.189,193.933,28.324,285.453,34.933,91.307,6.609,103.2-30.212,194.5-33.044,91.52-2.832,250.711,23.976,342.232,17.178,91.307-6.7,197.862,1.511,289.169,0,91.52-1.605,167.578-43.614,259.1-37,91.307,6.609,183.04,13.218,228.907,16.522l45.867,3.3v33.044H0Z" transform="translate(0 489.987)" fill="#86d690"/>
  </g>
</svg>
