<svg xmlns="http://www.w3.org/2000/svg" width="177.716" height="168.184" viewBox="0 0 177.716 168.184">
  <g id="Pst-card" transform="translate(0.001 -0.001)">
    <circle id="Ellipse_346" data-name="Ellipse 346" cx="2.353" cy="2.353" r="2.353" transform="translate(-0.001 0.001)" fill="#e6e6e6"/>
    <circle id="Ellipse_347" data-name="Ellipse 347" cx="2.353" cy="2.353" r="2.353" transform="translate(11.909 0.001)" fill="#e6e6e6"/>
    <circle id="Ellipse_348" data-name="Ellipse 348" cx="2.353" cy="2.353" r="2.353" transform="translate(23.819 0.001)" fill="#e6e6e6"/>
    <circle id="Ellipse_349" data-name="Ellipse 349" cx="2.353" cy="2.353" r="2.353" transform="translate(35.729 0.001)" fill="#e6e6e6"/>
    <circle id="Ellipse_350" data-name="Ellipse 350" cx="2.353" cy="2.353" r="2.353" transform="translate(47.638 0.001)" fill="#e6e6e6"/>
    <circle id="Ellipse_351" data-name="Ellipse 351" cx="2.353" cy="2.353" r="2.353" transform="translate(59.548 0.001)" fill="#e6e6e6"/>
    <circle id="Ellipse_352" data-name="Ellipse 352" cx="2.353" cy="2.353" r="2.353" transform="translate(71.458 0.001)" fill="#e6e6e6"/>
    <circle id="Ellipse_353" data-name="Ellipse 353" cx="2.353" cy="2.353" r="2.353" transform="translate(83.368 0.001)" fill="#e6e6e6"/>
    <circle id="Ellipse_354" data-name="Ellipse 354" cx="2.353" cy="2.353" r="2.353" transform="translate(95.278 0.001)" fill="#e6e6e6"/>
    <circle id="Ellipse_355" data-name="Ellipse 355" cx="2.353" cy="2.353" r="2.353" transform="translate(107.187 0.001)" fill="#e6e6e6"/>
    <circle id="Ellipse_356" data-name="Ellipse 356" cx="2.353" cy="2.353" r="2.353" transform="translate(-0.001 12.06)" fill="#e6e6e6"/>
    <circle id="Ellipse_357" data-name="Ellipse 357" cx="2.353" cy="2.353" r="2.353" transform="translate(11.909 12.06)" fill="#e6e6e6"/>
    <circle id="Ellipse_358" data-name="Ellipse 358" cx="2.353" cy="2.353" r="2.353" transform="translate(23.819 12.06)" fill="#e6e6e6"/>
    <circle id="Ellipse_359" data-name="Ellipse 359" cx="2.353" cy="2.353" r="2.353" transform="translate(35.729 12.06)" fill="#6dd179"/>
    <circle id="Ellipse_360" data-name="Ellipse 360" cx="2.353" cy="2.353" r="2.353" transform="translate(47.638 12.06)" fill="#e6e6e6"/>
    <circle id="Ellipse_361" data-name="Ellipse 361" cx="2.353" cy="2.353" r="2.353" transform="translate(59.548 12.06)" fill="#e6e6e6"/>
    <circle id="Ellipse_362" data-name="Ellipse 362" cx="2.353" cy="2.353" r="2.353" transform="translate(71.458 12.06)" fill="#e6e6e6"/>
    <circle id="Ellipse_363" data-name="Ellipse 363" cx="2.353" cy="2.353" r="2.353" transform="translate(83.368 12.06)" fill="#e6e6e6"/>
    <circle id="Ellipse_364" data-name="Ellipse 364" cx="2.353" cy="2.353" r="2.353" transform="translate(95.278 12.06)" fill="#e6e6e6"/>
    <circle id="Ellipse_365" data-name="Ellipse 365" cx="2.353" cy="2.353" r="2.353" transform="translate(107.187 12.06)" fill="#e6e6e6"/>
    <circle id="Ellipse_366" data-name="Ellipse 366" cx="2.353" cy="2.353" r="2.353" transform="translate(-0.001 24.119)" fill="#e6e6e6"/>
    <circle id="Ellipse_367" data-name="Ellipse 367" cx="2.353" cy="2.353" r="2.353" transform="translate(11.909 24.119)" fill="#e6e6e6"/>
    <circle id="Ellipse_368" data-name="Ellipse 368" cx="2.353" cy="2.353" r="2.353" transform="translate(23.819 24.119)" fill="#e6e6e6"/>
    <circle id="Ellipse_369" data-name="Ellipse 369" cx="2.353" cy="2.353" r="2.353" transform="translate(35.729 24.119)" fill="#e6e6e6"/>
    <circle id="Ellipse_370" data-name="Ellipse 370" cx="2.353" cy="2.353" r="2.353" transform="translate(47.638 24.119)" fill="#e6e6e6"/>
    <circle id="Ellipse_371" data-name="Ellipse 371" cx="2.353" cy="2.353" r="2.353" transform="translate(59.548 24.119)" fill="#e6e6e6"/>
    <circle id="Ellipse_372" data-name="Ellipse 372" cx="2.353" cy="2.353" r="2.353" transform="translate(71.458 24.119)" fill="#e6e6e6"/>
    <circle id="Ellipse_373" data-name="Ellipse 373" cx="2.353" cy="2.353" r="2.353" transform="translate(83.368 24.119)" fill="#e6e6e6"/>
    <circle id="Ellipse_374" data-name="Ellipse 374" cx="2.353" cy="2.353" r="2.353" transform="translate(95.278 24.119)" fill="#e6e6e6"/>
    <circle id="Ellipse_375" data-name="Ellipse 375" cx="2.353" cy="2.353" r="2.353" transform="translate(107.187 24.119)" fill="#e6e6e6"/>
    <circle id="Ellipse_376" data-name="Ellipse 376" cx="2.353" cy="2.353" r="2.353" transform="translate(-0.001 36.179)" fill="#e6e6e6"/>
    <circle id="Ellipse_377" data-name="Ellipse 377" cx="2.353" cy="2.353" r="2.353" transform="translate(11.909 36.179)" fill="#e6e6e6"/>
    <circle id="Ellipse_378" data-name="Ellipse 378" cx="2.353" cy="2.353" r="2.353" transform="translate(23.819 36.179)" fill="#e6e6e6"/>
    <circle id="Ellipse_379" data-name="Ellipse 379" cx="2.353" cy="2.353" r="2.353" transform="translate(35.729 36.179)" fill="#e6e6e6"/>
    <circle id="Ellipse_380" data-name="Ellipse 380" cx="2.353" cy="2.353" r="2.353" transform="translate(47.638 36.179)" fill="#e6e6e6"/>
    <circle id="Ellipse_381" data-name="Ellipse 381" cx="2.353" cy="2.353" r="2.353" transform="translate(59.548 36.179)" fill="#e6e6e6"/>
    <circle id="Ellipse_382" data-name="Ellipse 382" cx="2.353" cy="2.353" r="2.353" transform="translate(71.458 36.179)" fill="#e6e6e6"/>
    <circle id="Ellipse_383" data-name="Ellipse 383" cx="2.353" cy="2.353" r="2.353" transform="translate(83.368 36.179)" fill="#e6e6e6"/>
    <circle id="Ellipse_384" data-name="Ellipse 384" cx="2.353" cy="2.353" r="2.353" transform="translate(95.278 36.179)" fill="#e6e6e6"/>
    <circle id="Ellipse_385" data-name="Ellipse 385" cx="2.353" cy="2.353" r="2.353" transform="translate(107.187 36.179)" fill="#e6e6e6"/>
    <circle id="Ellipse_386" data-name="Ellipse 386" cx="2.353" cy="2.353" r="2.353" transform="translate(-0.001 48.238)" fill="#e6e6e6"/>
    <circle id="Ellipse_387" data-name="Ellipse 387" cx="2.353" cy="2.353" r="2.353" transform="translate(11.909 48.238)" fill="#6dd179"/>
    <circle id="Ellipse_388" data-name="Ellipse 388" cx="2.353" cy="2.353" r="2.353" transform="translate(23.819 48.238)" fill="#e6e6e6"/>
    <circle id="Ellipse_389" data-name="Ellipse 389" cx="2.353" cy="2.353" r="2.353" transform="translate(35.729 48.238)" fill="#e6e6e6"/>
    <circle id="Ellipse_390" data-name="Ellipse 390" cx="2.353" cy="2.353" r="2.353" transform="translate(47.638 48.238)" fill="#e6e6e6"/>
    <circle id="Ellipse_391" data-name="Ellipse 391" cx="2.353" cy="2.353" r="2.353" transform="translate(59.548 48.238)" fill="#e6e6e6"/>
    <circle id="Ellipse_392" data-name="Ellipse 392" cx="2.353" cy="2.353" r="2.353" transform="translate(71.458 48.238)" fill="#e6e6e6"/>
    <circle id="Ellipse_393" data-name="Ellipse 393" cx="2.353" cy="2.353" r="2.353" transform="translate(83.368 48.238)" fill="#e6e6e6"/>
    <circle id="Ellipse_394" data-name="Ellipse 394" cx="2.353" cy="2.353" r="2.353" transform="translate(95.278 48.238)" fill="#e6e6e6"/>
    <circle id="Ellipse_395" data-name="Ellipse 395" cx="2.353" cy="2.353" r="2.353" transform="translate(107.187 48.238)" fill="#e6e6e6"/>
    <circle id="Ellipse_396" data-name="Ellipse 396" cx="2.353" cy="2.353" r="2.353" transform="translate(-0.001 60.297)" fill="#e6e6e6"/>
    <circle id="Ellipse_397" data-name="Ellipse 397" cx="2.353" cy="2.353" r="2.353" transform="translate(11.909 60.297)" fill="#e6e6e6"/>
    <circle id="Ellipse_398" data-name="Ellipse 398" cx="2.353" cy="2.353" r="2.353" transform="translate(23.819 60.297)" fill="#e6e6e6"/>
    <circle id="Ellipse_399" data-name="Ellipse 399" cx="2.353" cy="2.353" r="2.353" transform="translate(35.729 60.297)" fill="#e6e6e6"/>
    <circle id="Ellipse_400" data-name="Ellipse 400" cx="2.353" cy="2.353" r="2.353" transform="translate(47.638 60.297)" fill="#e6e6e6"/>
    <circle id="Ellipse_401" data-name="Ellipse 401" cx="2.353" cy="2.353" r="2.353" transform="translate(59.548 60.297)" fill="#e6e6e6"/>
    <circle id="Ellipse_402" data-name="Ellipse 402" cx="2.353" cy="2.353" r="2.353" transform="translate(71.458 60.297)" fill="#e6e6e6"/>
    <circle id="Ellipse_403" data-name="Ellipse 403" cx="2.353" cy="2.353" r="2.353" transform="translate(83.368 60.297)" fill="#e6e6e6"/>
    <circle id="Ellipse_404" data-name="Ellipse 404" cx="2.353" cy="2.353" r="2.353" transform="translate(95.278 60.297)" fill="#e6e6e6"/>
    <circle id="Ellipse_405" data-name="Ellipse 405" cx="2.353" cy="2.353" r="2.353" transform="translate(107.187 60.297)" fill="#e6e6e6"/>
    <circle id="Ellipse_406" data-name="Ellipse 406" cx="2.353" cy="2.353" r="2.353" transform="translate(-0.001 72.356)" fill="#e6e6e6"/>
    <circle id="Ellipse_407" data-name="Ellipse 407" cx="2.353" cy="2.353" r="2.353" transform="translate(11.909 72.356)" fill="#e6e6e6"/>
    <circle id="Ellipse_408" data-name="Ellipse 408" cx="2.353" cy="2.353" r="2.353" transform="translate(23.819 72.356)" fill="#6dd179"/>
    <circle id="Ellipse_409" data-name="Ellipse 409" cx="2.353" cy="2.353" r="2.353" transform="translate(35.729 72.356)" fill="#e6e6e6"/>
    <circle id="Ellipse_410" data-name="Ellipse 410" cx="2.353" cy="2.353" r="2.353" transform="translate(47.638 72.356)" fill="#e6e6e6"/>
    <circle id="Ellipse_411" data-name="Ellipse 411" cx="2.353" cy="2.353" r="2.353" transform="translate(59.548 72.356)" fill="#e6e6e6"/>
    <circle id="Ellipse_412" data-name="Ellipse 412" cx="2.353" cy="2.353" r="2.353" transform="translate(71.458 72.356)" fill="#e6e6e6"/>
    <circle id="Ellipse_413" data-name="Ellipse 413" cx="2.353" cy="2.353" r="2.353" transform="translate(83.368 72.356)" fill="#e6e6e6"/>
    <circle id="Ellipse_414" data-name="Ellipse 414" cx="2.353" cy="2.353" r="2.353" transform="translate(95.278 72.356)" fill="#e6e6e6"/>
    <circle id="Ellipse_415" data-name="Ellipse 415" cx="2.353" cy="2.353" r="2.353" transform="translate(107.187 72.356)" fill="#e6e6e6"/>
    <circle id="Ellipse_416" data-name="Ellipse 416" cx="2.353" cy="2.353" r="2.353" transform="translate(-0.001 84.416)" fill="#e6e6e6"/>
    <circle id="Ellipse_417" data-name="Ellipse 417" cx="2.353" cy="2.353" r="2.353" transform="translate(11.909 84.416)" fill="#e6e6e6"/>
    <circle id="Ellipse_418" data-name="Ellipse 418" cx="2.353" cy="2.353" r="2.353" transform="translate(23.819 84.416)" fill="#e6e6e6"/>
    <circle id="Ellipse_419" data-name="Ellipse 419" cx="2.353" cy="2.353" r="2.353" transform="translate(35.729 84.416)" fill="#e6e6e6"/>
    <circle id="Ellipse_420" data-name="Ellipse 420" cx="2.353" cy="2.353" r="2.353" transform="translate(47.638 84.416)" fill="#e6e6e6"/>
    <circle id="Ellipse_421" data-name="Ellipse 421" cx="2.353" cy="2.353" r="2.353" transform="translate(59.548 84.416)" fill="#e6e6e6"/>
    <circle id="Ellipse_422" data-name="Ellipse 422" cx="2.353" cy="2.353" r="2.353" transform="translate(71.458 84.416)" fill="#e6e6e6"/>
    <circle id="Ellipse_423" data-name="Ellipse 423" cx="2.353" cy="2.353" r="2.353" transform="translate(83.368 84.416)" fill="#e6e6e6"/>
    <circle id="Ellipse_424" data-name="Ellipse 424" cx="2.353" cy="2.353" r="2.353" transform="translate(95.278 84.416)" fill="#e6e6e6"/>
    <circle id="Ellipse_425" data-name="Ellipse 425" cx="2.353" cy="2.353" r="2.353" transform="translate(107.187 84.416)" fill="#e6e6e6"/>
    <circle id="Ellipse_426" data-name="Ellipse 426" cx="2.353" cy="2.353" r="2.353" transform="translate(-0.001 96.475)" fill="#e6e6e6"/>
    <circle id="Ellipse_427" data-name="Ellipse 427" cx="2.353" cy="2.353" r="2.353" transform="translate(11.909 96.475)" fill="#e6e6e6"/>
    <circle id="Ellipse_428" data-name="Ellipse 428" cx="2.353" cy="2.353" r="2.353" transform="translate(23.819 96.475)" fill="#e6e6e6"/>
    <circle id="Ellipse_429" data-name="Ellipse 429" cx="2.353" cy="2.353" r="2.353" transform="translate(35.729 96.475)" fill="#e6e6e6"/>
    <circle id="Ellipse_430" data-name="Ellipse 430" cx="2.353" cy="2.353" r="2.353" transform="translate(47.638 96.475)" fill="#e6e6e6"/>
    <circle id="Ellipse_431" data-name="Ellipse 431" cx="2.353" cy="2.353" r="2.353" transform="translate(59.548 96.475)" fill="#e6e6e6"/>
    <circle id="Ellipse_432" data-name="Ellipse 432" cx="2.353" cy="2.353" r="2.353" transform="translate(71.458 96.475)" fill="#e6e6e6"/>
    <circle id="Ellipse_433" data-name="Ellipse 433" cx="2.353" cy="2.353" r="2.353" transform="translate(83.368 96.475)" fill="#e6e6e6"/>
    <circle id="Ellipse_434" data-name="Ellipse 434" cx="2.353" cy="2.353" r="2.353" transform="translate(95.278 96.475)" fill="#e6e6e6"/>
    <circle id="Ellipse_435" data-name="Ellipse 435" cx="2.353" cy="2.353" r="2.353" transform="translate(107.187 96.475)" fill="#e6e6e6"/>
    <circle id="Ellipse_436" data-name="Ellipse 436" cx="2.353" cy="2.353" r="2.353" transform="translate(-0.001 108.534)" fill="#e6e6e6"/>
    <circle id="Ellipse_437" data-name="Ellipse 437" cx="2.353" cy="2.353" r="2.353" transform="translate(11.909 108.534)" fill="#e6e6e6"/>
    <circle id="Ellipse_438" data-name="Ellipse 438" cx="2.353" cy="2.353" r="2.353" transform="translate(23.819 108.534)" fill="#e6e6e6"/>
    <circle id="Ellipse_439" data-name="Ellipse 439" cx="2.353" cy="2.353" r="2.353" transform="translate(35.729 108.534)" fill="#e6e6e6"/>
    <circle id="Ellipse_440" data-name="Ellipse 440" cx="2.353" cy="2.353" r="2.353" transform="translate(47.638 108.534)" fill="#e6e6e6"/>
    <circle id="Ellipse_441" data-name="Ellipse 441" cx="2.353" cy="2.353" r="2.353" transform="translate(59.548 108.534)" fill="#e6e6e6"/>
    <circle id="Ellipse_442" data-name="Ellipse 442" cx="2.353" cy="2.353" r="2.353" transform="translate(71.458 108.534)" fill="#e6e6e6"/>
    <circle id="Ellipse_443" data-name="Ellipse 443" cx="2.353" cy="2.353" r="2.353" transform="translate(83.368 108.534)" fill="#e6e6e6"/>
    <circle id="Ellipse_444" data-name="Ellipse 444" cx="2.353" cy="2.353" r="2.353" transform="translate(95.278 108.534)" fill="#e6e6e6"/>
    <circle id="Ellipse_445" data-name="Ellipse 445" cx="2.353" cy="2.353" r="2.353" transform="translate(107.187 108.534)" fill="#e6e6e6"/>
    <rect id="Rectangle_2816" data-name="Rectangle 2816" width="96" height="127" rx="10" transform="translate(47.358 19.357)" fill="rgba(109,209,121,0.1)"/>
    <rect id="Rectangle_2815" data-name="Rectangle 2815" width="85" height="118" rx="10" transform="translate(53.358 24.357)" fill="#fff"/>
    <path id="Path_2956" data-name="Path 2956" d="M463.419,257.643a.6.6,0,0,1,.595.595v1.19a.6.6,0,0,1-.595.595h-47a.6.6,0,0,1-.595-.595v-1.19a.6.6,0,0,1,.595-.595h47" transform="translate(-344.337 -180.1)" fill="#e6e6e6"/>
    <path id="Path_2957" data-name="Path 2957" d="M463.419,274.009a.6.6,0,0,1,.595.595v1.19a.6.6,0,0,1-.595.595h-47a.6.6,0,0,1-.595-.595V274.6a.6.6,0,0,1,.595-.595h47" transform="translate(-344.337 -190.815)" fill="#e6e6e6"/>
    <path id="Path_2958" data-name="Path 2958" d="M463.419,290.376a.6.6,0,0,1,.595.595v1.19a.6.6,0,0,1-.595.595h-47a.6.6,0,0,1-.595-.595v-1.19a.6.6,0,0,1,.595-.595h47" transform="translate(-344.337 -201.53)" fill="#6dd179"/>
    <path id="Path_2959" data-name="Path 2959" d="M463.419,307.1a.6.6,0,0,1,.595.595v1.19a.6.6,0,0,1-.595.595h-47a.6.6,0,0,1-.595-.595V307.7a.6.6,0,0,1,.595-.595h47" transform="translate(-344.337 -212.479)" fill="#e6e6e6"/>
    <path id="Path_2960" data-name="Path 2960" d="M463.419,323.467a.6.6,0,0,1,.595.595v1.19a.6.6,0,0,1-.595.595h-47a.6.6,0,0,1-.595-.595v-1.19a.6.6,0,0,1,.595-.595h47" transform="translate(-344.337 -223.194)" fill="#e6e6e6"/>
    <path id="Path_2961" data-name="Path 2961" d="M463.418,339.834a.6.6,0,0,1,.595.595v1.19a.6.6,0,0,1-.595.595h-47a.6.6,0,0,1-.595-.595v-1.19a.6.6,0,0,1,.595-.595h47" transform="translate(-344.337 -233.909)" fill="#e6e6e6"/>
    <path id="Path_2962" data-name="Path 2962" d="M417.108,394.89c-.381,0-.69.087-.691.195v9.036c0,.107.309.194.691.194h46.318c.381,0,.69-.087.691-.194v-9.036c0-.107-.309-.194-.691-.195Z" transform="translate(-344.725 -280.39)" fill="#6dd179"/>
    <path id="Path_2963" data-name="Path 2963" d="M282.319,59.405l-.486-.129.267-14.055h61.545v.5H282.486Z" transform="translate(-176.239 -29.605)" fill="#3f3d56"/>
    <path id="Path_2964" data-name="Path 2964" d="M698.142,174.158a5.28,5.28,0,1,1,5.28-5.28A5.28,5.28,0,0,1,698.142,174.158Zm0-10.058a4.777,4.777,0,1,0,4.777,4.777A4.777,4.777,0,0,0,698.142,164.1Z" transform="translate(-525.707 -153.01)" fill="#3f3d56"/>
    <circle id="Ellipse_446" data-name="Ellipse 446" cx="2.012" cy="2.012" r="2.012" transform="translate(170.423 13.856)" fill="#6dd179"/>
    <path id="Path_2965" data-name="Path 2965" d="M136.458,356.941l.486.13-10.687,39.894-61.545-.118v-.5l61.158.117Z" transform="translate(-42.366 -233.681)" fill="#3f3d56"/>
    <path id="Path_2966" data-name="Path 2966" d="M248.955,589.4a5.28,5.28,0,1,1-5.29,5.27,5.28,5.28,0,0,1,5.29-5.27Zm-.019,10.058a4.777,4.777,0,1,0-4.768-4.787A4.777,4.777,0,0,0,248.936,599.453Z" transform="translate(-231.627 -431.771)" fill="#3f3d56"/>
    <circle id="Ellipse_447" data-name="Ellipse 447" cx="2.012" cy="2.012" r="2.012" transform="translate(15.306 160.893)" fill="#6dd179"/>
    <text id="PST" transform="translate(70.761 54.997)" fill="#6dd179" font-size="25" font-family="Montserrat-Medium, Montserrat" font-weight="500"><tspan x="0" y="0">PST</tspan></text>
  </g>
</svg>
