<svg xmlns="http://www.w3.org/2000/svg" xmlns:xlink="http://www.w3.org/1999/xlink" width="358.677" height="245.605" viewBox="0 0 358.677 245.605">
  <defs>
    <linearGradient id="linear-gradient" x1="0.5" y1="1" x2="0.5" gradientUnits="objectBoundingBox">
      <stop offset="0" stop-color="gray" stop-opacity="0.251"/>
      <stop offset="0.54" stop-color="gray" stop-opacity="0.122"/>
      <stop offset="1" stop-color="gray" stop-opacity="0.102"/>
    </linearGradient>
  </defs>
  <g id="M-stress" transform="translate(-1702.932 -2607)">
    <path id="Path_2150" data-name="Path 2150" d="M61.83,433.31c5.24,20.284,16.323,37.818,33.837,46.318,36.41,17.664,118.525,8.554,179.81-1.9,31.7-5.409,59.566-20.335,79.807-41.341Z" transform="translate(1671.46 2291.503)" fill="#6dd179" opacity="0.1"/>
    <path id="Path_2151" data-name="Path 2151" d="M402.85,66.36h-33.63a2.646,2.646,0,1,1,0-5.267h5.817a2.646,2.646,0,1,1,0-5.267h-4.151a2.646,2.646,0,1,1,0-5.267h17.553a50.237,50.237,0,0,0-13.694-3.42c-47.865-5.569-64.953-1.885-70.981,1.9a70.693,70.693,0,0,1-24.6,9.772c-29.53,5.52-84.756,12.162-134.811-2.115-24.878-7.11-43.369,4.889-54.451,24.946H408.691a43.4,43.4,0,0,0-3.949-15.924A3.065,3.065,0,0,1,402.85,66.36Z" transform="translate(1651.872 2562.706)" fill="#6dd179" opacity="0.1"/>
    <path id="Path_2152" data-name="Path 2152" d="M50.7,293.19a121.81,121.81,0,0,0,1.3,35.389l295.266,9.787a125.45,125.45,0,0,0,20.515-28.348Zm116.781,25.245h-5.814a2.646,2.646,0,1,1,0,5.266h-33.63a2.646,2.646,0,1,1,0-5.266h5.817a2.646,2.646,0,1,1,0-5.267H129.7a2.646,2.646,0,1,1,0-5.266h33.63a2.646,2.646,0,1,1,0,5.266h4.151a2.646,2.646,0,1,1,0,5.267Z" transform="translate(1679.729 2389.178)" fill="#6dd179" opacity="0.1"/>
    <path id="Path_2153" data-name="Path 2153" d="M382.618,168.5,60.241,175.6a107.242,107.242,0,0,0-7.721,30.164H376.969a114.731,114.731,0,0,0,4.683-19.226A82.417,82.417,0,0,0,382.618,168.5ZM117.974,191.781H112.16a2.648,2.648,0,1,1,0,5.27H78.528a2.647,2.647,0,1,1,0-5.27h5.817a2.646,2.646,0,1,1,0-5.267H80.19a2.646,2.646,0,1,1,0-5.267h33.632a2.646,2.646,0,1,1,0,5.267h4.152a2.646,2.646,0,1,1,0,5.267Z" transform="translate(1677.957 2476.108)" fill="#6dd179" opacity="0.1"/>
    <ellipse id="Ellipse_169" data-name="Ellipse 169" cx="163.028" cy="12.425" rx="163.028" ry="12.425" transform="translate(1702.932 2818.591)" fill="#6dd179" opacity="0.1"/>
    <path id="Path_2202" data-name="Path 2202" d="M824.963,113.444s-25.441-1.532-22.441,16.3a4.333,4.333,0,0,0,2.26,4.581s.046-1.32,2.608-.873a11.788,11.788,0,0,0,2.765.133,5.74,5.74,0,0,0,3.378-1.4h0s7.152-2.952,9.935-14.643c0,0,2.057-2.55,1.976-3.2l-4.293,1.831s1.465,3.1.3,5.671c0,0-.139-5.557-.964-5.439-.166.027-2.23,1.073-2.23,1.073s2.523,5.4.6,9.315c0,0,.722-6.647-1.408-8.926l-3.022,1.765s2.95,5.572.949,10.119c0,0,.514-6.974-1.583-9.69l-2.741,2.136s2.771,5.493,1.082,9.264c0,0-.221-8.119-1.674-8.732a16.764,16.764,0,0,0-2.762,2.982s1.9,3.985.722,6.089c0,0-.722-5.409-1.314-5.439,0,0-2.387,3.584-2.638,6.043a13.063,13.063,0,0,1,2.057-6.385,7.166,7.166,0,0,0-3.653,1.895s.371-2.535,4.23-2.756c0,0,1.973-2.719,2.5-2.883,0,0-3.853-.323-6.188.713,0,0,2.055-2.39,6.892-1.305l2.719-2.206s-5.07-.695-7.222.072c0,0,2.475-2.115,7.95-.574l2.946-1.762a27.017,27.017,0,0,0-6.9-.6s2.719-1.465,7.763.124l2.115-.946s-3.169-.622-4.1-.719-.976-.357-.976-.357a10.985,10.985,0,0,1,5.962.692S825.038,113.725,824.963,113.444Z" transform="translate(1154.39 2514.473)" fill="#6dd179"/>
    <path id="Path_2203" data-name="Path 2203" d="M767.328,87.255s-11.482-.695-10.14,7.361a1.965,1.965,0,0,0,1.021,2.07s.018-.6,1.178-.393a5.459,5.459,0,0,0,1.248.06,2.624,2.624,0,0,0,1.528-.632h0s3.23-1.336,4.487-6.617c0,0,.931-1.151.906-1.447l-1.94.828a3.467,3.467,0,0,1,.142,2.562s-.063-2.511-.435-2.45c-.075,0-1.009.483-1.009.483s1.142,2.438.281,4.209c0,0,.326-3-.635-4.034l-1.366.8s1.333,2.52.43,4.575c0,0,.229-3.151-.717-4.378l-1.238.964s1.251,2.481.49,4.185c0,0-.1-3.668-.758-3.946a7.564,7.564,0,0,0-1.248,1.348s.858,1.813.326,2.753c0,0-.326-2.444-.6-2.454a8.1,8.1,0,0,0-1.19,2.719,5.881,5.881,0,0,1,.927-2.886,3.235,3.235,0,0,0-1.65.855s.166-1.145,1.916-1.245a7.54,7.54,0,0,1,1.13-1.3,7.086,7.086,0,0,0-2.8.323s.928-1.082,3.115-.6l1.209-.994a10.493,10.493,0,0,0-3.263.03s1.118-.955,3.593-.257l1.33-.8a12.093,12.093,0,0,0-3.119-.269,4.783,4.783,0,0,1,3.508.057l.952-.429s-1.432-.281-1.849-.323-.444-.16-.444-.16a4.952,4.952,0,0,1,2.689.3A12.154,12.154,0,0,0,767.328,87.255Z" transform="translate(1185.965 2532.736)" fill="#6dd179"/>
    <ellipse id="Ellipse_174" data-name="Ellipse 174" cx="8.137" cy="1.375" rx="8.137" ry="1.375" transform="translate(2045.334 2825.259)" fill="#6dd179" opacity="0.1"/>
    <ellipse id="Ellipse_175" data-name="Ellipse 175" cx="8.137" cy="1.375" rx="8.137" ry="1.375" transform="translate(1735.708 2848.13)" fill="#6dd179" opacity="0.1"/>
    <ellipse id="Ellipse_176" data-name="Ellipse 176" cx="8.137" cy="1.375" rx="8.137" ry="1.375" transform="translate(1782.863 2849.855)" fill="#6dd179" opacity="0.1"/>
    <ellipse id="Ellipse_177" data-name="Ellipse 177" cx="12.15" cy="2.055" rx="12.15" ry="2.055" transform="translate(2023.512 2839.313)" fill="#6dd179"/>
    <path id="Path_2204" data-name="Path 2204" d="M1054.811,794.466a3.541,3.541,0,0,0,1.16-1.749,1.558,1.558,0,0,0-.81-1.78c-.743-.284-1.537.233-2.14.752a2.868,2.868,0,0,1-2.082,1,3.164,3.164,0,0,0,.979-2.964,1.235,1.235,0,0,0-.273-.6c-.413-.441-1.159-.254-1.655.093-1.571,1.106-2.009,3.239-2.019,5.161a9.7,9.7,0,0,1-.027-2.115,2.188,2.188,0,0,0-.8-1.883,2.42,2.42,0,0,0-1.21-.284,2.514,2.514,0,0,0-1.976.559,1.944,1.944,0,0,0,.079,2.417,7.822,7.822,0,0,0,2.042,1.638,4.533,4.533,0,0,1,1.462,1.393,1.489,1.489,0,0,1,.109.251h4.427a12.336,12.336,0,0,0,2.729-1.889Z" transform="translate(985.872 2043.545)" fill="#6dd179"/>
    <g id="Group_2233" data-name="Group 2233" transform="translate(1908.85 2714.817)">
      <ellipse id="Ellipse_173" data-name="Ellipse 173" cx="55.574" cy="56.678" rx="55.574" ry="56.678" transform="translate(0)" fill="#6dd179" opacity="0.5"/>
      <path id="Path_2199" data-name="Path 2199" d="M473.525,548.744c0,9.991-15.706.854-32.545.854s-33.87,8.76-33.87-1.231c0-5.7,5.428-13.62,13.216-19.374h0c5.867-4.337,13.072-7.443,20.31-7.443,7.443,0,14.734,3.362,20.55,7.978C468.525,535.348,473.525,543.168,473.525,548.744Z" transform="translate(-384.244 -460.94)" fill="#444053"/>
      <path id="Path_2200" data-name="Path 2200" d="M512.388,529.508c-8.951-1.348-25.139-2.991-40.858-.536,5.867-4.337,13.072-7.443,20.31-7.443C499.28,521.53,506.571,524.892,512.388,529.508Z" transform="translate(-435.451 -460.957)" fill="#f6f8fb"/>
      <path id="Path_2201" data-name="Path 2201" d="M333.845,281.31s-19.064,12.188-18.909,31.252S333.845,281.31,333.845,281.31Z" transform="translate(-310.914 -270.09)" opacity="0.05"/>
      <path id="Path_2215" data-name="Path 2215" d="M401.959,443.316c1.2-.068,6.873-.494,10.473-2.548a4.081,4.081,0,0,1,1.9-.56c1.145-.033,2.462.445,1.619,3.12-1.366,4.376-9.3,9.3-14.223,9.027a16.315,16.315,0,0,1-14.061-8.879,4.1,4.1,0,0,1-.507-2.111c.043-1.354.535-3.051,3.077-1.159,3.434,2.554,9.95,3.038,11.256,3.11A4.228,4.228,0,0,0,401.959,443.316Z" transform="translate(-368.351 -395.673)" fill="#444053"/>
      <path id="Path_2216" data-name="Path 2216" d="M623.959,443.316c1.2-.068,6.873-.494,10.473-2.548a4.081,4.081,0,0,1,1.9-.56c1.145-.033,2.462.445,1.619,3.12-1.366,4.376-9.3,9.3-14.223,9.027a16.314,16.314,0,0,1-14.061-8.879,4.1,4.1,0,0,1-.507-2.111c.043-1.354.535-3.051,3.077-1.159,3.434,2.554,9.95,3.038,11.257,3.11A4.22,4.22,0,0,0,623.959,443.316Z" transform="translate(-544.884 -395.673)" fill="#444053"/>
    </g>
    <g id="Group_2229" data-name="Group 2229" transform="translate(1702.932 2629.422)">
      <g id="Group_2220" data-name="Group 2220" transform="translate(31.306 3)" opacity="0.05">
        <path id="Path_4034" data-name="Path 4034" d="M574.845,698.98c-2.2.976-24.149-5.852-24.149-5.852a23.3,23.3,0,0,1,.071-6.387c-1.26,3.04-.559,8.1-.559,8.1s21.951,6.828,24.149,5.852c.725-.323,1.426-2.2,2.04-4.568C575.908,697.64,575.388,698.759,574.845,698.98Z" transform="translate(-550.013 -553.421)"/>
        <path id="Path_4035" data-name="Path 4035" d="M563,622.63a14.176,14.176,0,0,0-.457,1.512s-5.293,31.608-8.451,43.32C557.012,657.955,562.526,625.442,563,622.63Z" transform="translate(-550.879 -539.806)"/>
        <path id="Path_4036" data-name="Path 4036" d="M602.281,716.476s-16.343-23.629-15.611-34.656c0,0-.173,1.371-.48,3.309.74,11.531,15.6,33.065,15.6,33.065,11.366,0,16.446-8.049,18.643-16.5C618.01,709.474,612.882,716.476,602.281,716.476Z" transform="translate(-557.696 -552.376)"/>
        <path id="Path_4031" data-name="Path 4031" d="M653.962,540.178c1.843-.307,3.481-1.386,5.348-1.481,2.363-.118,4.5,1.394,6.159,2.954s3.277,3.34,5.561,4.017a13.739,13.739,0,0,0,4.458.3,4.143,4.143,0,0,0,2.363-.6,2.975,2.975,0,0,0,.788-1.205,11.459,11.459,0,0,0-.071-9.286,1.573,1.573,0,0,1-.22-1.008,1.519,1.519,0,0,1,.339-.56c1.575-1.858,3.237-3.717,3.875-5.97s-.142-5.025-2.465-6.026a4.64,4.64,0,0,0-3.671,0c-1.087.5-1.93,1.418-3.151,1.662-1.977.41-3.671-1.181-5.214-2.363a15.651,15.651,0,0,0-8.278-3.088,8.016,8.016,0,0,0-3.867.512,15.408,15.408,0,0,0-3.15,2.362c-3.521,2.843-8.451,3.639-12.862,5.191-.843.3-1.78.74-1.937,1.575s.787,1.677,1.733,2.04a6.335,6.335,0,0,1,2.662,1.331c.788.945.536,2.284.677,3.473.291,2.363,2.363,3.647,4.655,4.332C649.591,538.95,652.08,540.493,653.962,540.178Z" transform="translate(-568.688 -517.474)" opacity="0.1"/>
      </g>
      <path id="Path_4005" data-name="Path 4005" d="M546.667,730.833s-16.343.977-18.785,0-18.044-3.41-13.138,7.814S538.161,754.5,538.161,754.5l13.39-3.418Z" transform="translate(-511.015 -559.59)" fill="#7679b4"/>
      <path id="Path_4007" data-name="Path 4007" d="M625.067,670.08l32.8,13.326,18.659,39.633s.244,13.9-11.948,17.076-29.268,1.709-33.664-1.464S608.48,716.7,608.48,716.7Z" transform="translate(-531.123 -546.882)" fill="#7679b4"/>
      <path id="Path_4009" data-name="Path 4009" d="M585.043,730.774s-8.538,2.93-11.948,0-9.515.733-9.515.733l2.694,15.855s12.192-2.686,18.785-1.954Z" transform="translate(-521.588 -559.53)" fill="#ffbdc6"/>
      <path id="Path_4011" data-name="Path 4011" d="M590.636,695.2l-7.79-2.686s-8.538,7.561-14.177,1.221,5.119-32.686,5.119-32.686l11.46-18.541,8.294,26.1,7.561,12.681Z" transform="translate(-522.321 -541.028)" fill="#565388"/>
      <path id="Path_4012" data-name="Path 4012" d="M590.636,695.2l-7.79-2.686s-8.538,7.561-14.177,1.221,5.119-32.686,5.119-32.686l11.46-18.541,8.294,26.1,7.561,12.681Z" transform="translate(-522.321 -541.028)" opacity="0.05"/>
      <path id="Path_4013" data-name="Path 4013" d="M586.434,621.07,604,623.5l3.419,16.1-21.707-1.221Z" transform="translate(-443.712 -468.36)" fill="#565388"/>
      <path id="Path_4014" data-name="Path 4014" d="M586.434,621.07,604,623.5l3.419,16.1-21.707-1.221Z" transform="translate(-443.712 -468.36)" opacity="0.05"/>
      <path id="Path_4015" data-name="Path 4015" d="M651.482,595.45S658.8,623.5,682.2,603.256l6.34,80.488s-7.805,12.437-9.026,23.629-22.439-34.656-35.121-34.876S619.15,654.57,619.15,654.57l14.272-29.395Z" transform="translate(-533.39 -531.033)" opacity="0.1"/>
      <path id="Path_4017" data-name="Path 4017" d="M636.016,571.321s-10.239-1.709-16.1-.732-6.585,11.7-6.585,11.7-16.587,5.852-22.2,3.938c0,0-27.567-1.953-27.567,6.341s8.79,12.145,8.79,12.145,38.271,1.292,38.539,1.221c8.782-2.441-.244,0-.244,0l-15.855,23.9,14.634,20.242,15.611-11.46s1.954-10.736,7.089-16.1c3.655-3.836,8.435-21.1,10.87-30.654a15.674,15.674,0,0,0-1.772-11.964Z" transform="translate(-521.586 -525.689)" opacity="0.1"/>
      <path id="Path_4018" data-name="Path 4018" d="M594.036,583.29a35.968,35.968,0,0,0-2.277,3.671c-5.119,9.758-17.028-6.1-12.909-11.586l2.844-2.655C580.655,585.306,590.9,583.968,594.036,583.29Z" transform="translate(-524.65 -526.206)" opacity="0.1"/>
      <path id="Path_4019" data-name="Path 4019" d="M623.276,614.047H623S632.058,611.606,623.276,614.047Z" transform="translate(-534.206 -534.752)" opacity="0.1"/>
      <path id="Path_4021" data-name="Path 4021" d="M718.4,672.25v1.339A2.9,2.9,0,0,1,718.4,672.25Z" transform="translate(-554.45 -547.343)" opacity="0.1"/>
      <path id="Path_4022" data-name="Path 4022" d="M745.261,698.182a27.876,27.876,0,0,1-15.934.142l-1.307-3.466,15.855-3.419S744.45,694.244,745.261,698.182Z" transform="translate(-556.509 -551.418)" opacity="0.1"/>
      <path id="Path_4023" data-name="Path 4023" d="M689.62,579.34s13.658,8.538,18.541,9.759,17.564,5.608,17.564,5.608l5.119,17.328s1.954,13.17,0,20.479-20.242,21.219-19.265,19.021l-.488,19.266s0,28.047,3.938,33.868-7.443-5.734-7.443-5.734S693.8,678.566,692.1,665.64s.969-62.64.969-62.64l-2.442-3.419S695.716,586.413,689.62,579.34Z" transform="translate(-548.356 -527.612)" opacity="0.1"/>
      <path id="Path_4027" data-name="Path 4027" d="M550.512,736.161s-2.442-6.1-9.026-1.221c0,0-5.852,13.658-16.1,15.611s-1.465,7.805-.977,8.05,17.076,2.931,20.975,1.709,19.754-4.143,19.754-4.143-.733-16.1-3.151-17.329S560.759,746.141,550.512,736.161Z" transform="translate(-512.427 -560.255)" opacity="0.05"/>
      <path id="Path_4030" data-name="Path 4030" d="M681.306,574.857c-3.15-4.434-2.552-7.947-2.552-7.947L658,570.36a66.915,66.915,0,0,1,3.544,9.948A19.5,19.5,0,0,0,681.306,574.857Z" transform="translate(-541.64 -524.972)" opacity="0.1"/>
      <path id="Path_4001" data-name="Path 4001" d="M709.539,692.256s-2.748,1.5-4-6.978c-.788-5.513-3.08-16.879-4.584-24.259l-.189-.937a12.883,12.883,0,0,0,1.269-.473s-8.759-33.867-6.758-41.366,0-20.935,0-20.935l-5.254-17.691s-13.012-4.49-18.013-5.734S653,563.912,653,563.912a10.846,10.846,0,0,1,.677.874l-.559-.339a20.843,20.843,0,0,1-2.757-3.15,19.834,19.834,0,0,0,5.182-10.775,22.37,22.37,0,0,0-1.118-22.755,11.144,11.144,0,0,0,1.914-3.576,5.857,5.857,0,0,0,.213-1.828,4.861,4.861,0,0,0-2.741-4.828,4.783,4.783,0,0,0-3.765.039c-1.11.5-1.985,1.449-3.2,1.7-2.024.417-3.757-1.205-5.348-2.41a16.084,16.084,0,0,0-8.5-3.151,8.252,8.252,0,0,0-3.938.52,15.837,15.837,0,0,0-3.261,2.45c-3.607,2.906-8.664,3.717-13.192,5.3-.867.3-1.827.788-1.985,1.576a1.141,1.141,0,0,0,0,.473h0a1.164,1.164,0,0,0,.047.6c-8.444,1.418-16.706,7.829-16.706,7.829l-1.386,1.284a2.647,2.647,0,0,0-2.891.244l-2.788,2.19a2.623,2.623,0,0,0-.63,3.418l-20.392,18.9-.441.409v-.071s-15.753,11.964-15.753,20.431c0,6.119,4.726,9.893,7.3,11.523a19.53,19.53,0,0,0-5.088,7.876h0v1.914h0v.268l-.063.346v.142l-.039.237v.488l-.055.316h0l-.071.393v.079l-.055.331v.157l-.063.363v.094l-.071.41v.181l-.181,1.032h0l-.095.559v.095l-.1.575v.078l-.1.583v.047l-.11.614v.134l-.11.607v.134l-.1.6v.07l-.118.678v.126l-.268,1.512h0l-.134.787v.118l-.134.787v.055l-.291,1.576v.134l-.142.787v.11l-.307,1.662v.071l-.157.843v.071l-.316,1.717v.111l-.157.851v.063l-.331,1.757v.094l-.165.866v.063l-.339,1.78v.071l-.165.866v.071l-1.441,1.78V629l-.173.858v.048l-.354,1.749v.047l-.173.851v.047l-.347,1.669v.071l-.165.787v.071l-.338,1.575v.055l-.165.788v.078l-.331,1.488v.04l-.158.7V640q-.166.709-.323,1.37h0l-.158.646v.055q-.158.646-.307,1.237h0l-.15.567v.063l-.142.544c-.63,2.363-1.181,3.938-1.576,4.308a4.432,4.432,0,0,0-.921,1.449h0l-.063.158-.063.173-.055.173-.26.236-.055.181-.047.165-.048.189v.173l-.039.189v.173a1.2,1.2,0,0,1-.062.378v6.2l2.362.717s1.189.654,3.025,1.5c-.26,7.948-.992,18.707-2.985,25.291-4.443.228-15.414.693-17.4-.1-2.5-1-18.517-3.489-13.508,7.971,2.1,4.8,6.656,8.428,11.24,11.026a13.883,13.883,0,0,1-1.733.449c-4.08.787-5.214,2.151-5.057,3.552-.291,2.363,3.726,5,4.056,5.167.5.252,17.509,2.993,21.518,1.741S561.52,711.7,561.52,711.7v-.5h0s-.22-4.9-.835-9.546c1.843-.268,3.852-.512,5.8-.662a7.923,7.923,0,0,0,4.285,5.474c10.759,5.514,14.264-1.993,14.264-1.993s14.547,2.8,22.676.787a23.693,23.693,0,0,0,2.087,1.725c2.638,1.9,9.743,3.2,17.69,3.293a25.08,25.08,0,0,0,6.349-.181,58.867,58.867,0,0,0,10.4-1.63c9.57-2.481,11.672-11.382,12.129-15.422.378-.111.646-.5.788-1.245a3.585,3.585,0,0,0,.33-1.284,37.8,37.8,0,0,1,1.024-5.419l11.814.662c5.278,9.578,9.94,17.194,9.94,17.194l8-1a46.222,46.222,0,0,1-9.255-9.972c-4-5.978-4-34.656-4-34.656l.449-17.462v-.662c.741,5.175,6.608,20.187,7.27,20.408.48.157.953.3,1.417.433l.425,1.119c3.34,8.853,11.815,31.5,12.414,35.081.788,4.49,32.025,6.23,39.027,3.986S709.539,692.256,709.539,692.256ZM597.956,593.078l-11.452,17.2c-4.111-7.088-8.4-13.61-12.272-17.926C584.393,592.692,596.105,593.054,597.956,593.078Zm-1.741-44.107a2.654,2.654,0,0,0,2.765-.308l.977-.787a2.623,2.623,0,0,0,.67-3.371l.583-.575a87.152,87.152,0,0,0,11.909-2.891,22.231,22.231,0,0,0,2.915,10.113,19.734,19.734,0,0,0,1.922,5.67c-1.8-.149-3.749-.252-5.616-.236a29.353,29.353,0,0,0-4.876.307c-6,1-6.758,11.964-6.758,11.964s-12.059,4.237-19.305,4.387a9.075,9.075,0,0,1-2.709-.4l-.733-.047.985-2.694s-.425.134-1.126.276q.339-.511.709-1.039c4.584-6.577,12.523-15.052,17.69-20.352ZM571.436,682.04a46.429,46.429,0,0,0-2.481,4.884c-2.843.551-6.719.858-8.774-.9a5.121,5.121,0,0,0-3.292-1.157l.047-.095c1.418-2.718,2.623-8.806,3.569-15.107,4.584,0,8.939-3.836,8.939-3.836l5.773,1.977.212.4.142.26.228.425.142.268.229.418.15.267.228.41.15.268.22.4.15.268.229.4.15.26.228.394.142.252.228.394.142.244.221.386.142.244.228.386.134.22.228.378.134.22.228.378.118.2.237.386.087.142c.409.67.787,1.308,1.173,1.906l.055.087.221.347.094.15.2.315.11.165.181.284.11.181.165.26.118.181.158.244.11.173.142.221.11.173.134.205.11.173.126.189.111.166h0A50.729,50.729,0,0,1,571.436,682.04Z" transform="translate(-510.266 -513.665)" fill="url(#linear-gradient)"/>
      <path id="Path_4037" data-name="Path 4037" d="M553.047,694.531s14.9,8.207,20.274,4.3,1.953-10,1.953-10L571.123,682h-13.9l-4.631,8.049Z" transform="translate(-519.254 -549.414)" fill="#7679b4"/>
      <path id="Path_4002" data-name="Path 4002" d="M779.484,736.563c-6.829,2.2-37.318.488-38.051-3.938-.582-3.521-8.845-25.677-12.106-34.34l-1.307-3.466,15.855-3.419s.584,2.781,1.387,6.742c1.465,7.23,3.678,18.391,4.466,23.747,1.22,8.294,3.938,6.829,3.938,6.829S786.289,734.366,779.484,736.563Z" transform="translate(-556.509 -551.41)" fill="#ffbdc6"/>
      <path id="Path_4003" data-name="Path 4003" d="M678.408,566s-1.221,7.317,9.27,14.177,1.465,31.466,1.465,31.466l-7.758.433a19.068,19.068,0,0,1-20.053-17.264h0s4.387-7.089-3.663-25.37Z" transform="translate(-541.571 -524.779)" fill="#ffbdc6"/>
      <path id="Path_4004" data-name="Path 4004" d="M616.153,549.405s-15.1,14.721-22.117,24.865a35.977,35.977,0,0,0-2.277,3.671c-5.119,9.758-17.028-6.1-12.909-11.586l2.844-2.655,27.378-25.519s18.785-14.634,28.292-4.143S616.153,549.405,616.153,549.405Z" transform="translate(-524.65 -517.187)" fill="#ffbdc6"/>
      <circle id="Ellipse_839" data-name="Ellipse 839" cx="21.951" cy="21.951" r="21.951" transform="translate(103.089 6.487)" fill="#a66477"/>
      <path id="Path_4006" data-name="Path 4006" d="M546.667,730.833s-16.343.977-18.785,0-18.044-3.41-13.138,7.814S538.161,754.5,538.161,754.5l13.39-3.418Z" transform="translate(-511.015 -559.59)" fill="#453939"/>
      <path id="Path_4008" data-name="Path 4008" d="M622.838,670.08l28.394,10.641,16.155,31.718s.212,11.129-10.342,13.666-25.339,1.362-29.143-1.174-19.422-17.572-19.422-17.572Z" transform="translate(-531.123 -546.882)" fill="#404040"/>
      <path id="Path_4010" data-name="Path 4010" d="M585.043,730.774s-8.538,2.93-11.948,0-9.515.733-9.515.733l2.694,15.855s12.192-2.686,18.785-1.954Z" transform="translate(-521.588 -559.53)" opacity="0.05"/>
      <path id="Path_4016" data-name="Path 4016" d="M651.792,594.52s7.317,28.048,30.718,7.806l6.34,80.487s-7.8,12.437-9.026,23.63-22.44-34.656-35.12-34.877S619.46,653.64,619.46,653.64l14.272-29.395Z" transform="translate(-533.455 -530.836)" fill="#f2f1f2"/>
      <path id="Path_4020" data-name="Path 4020" d="M635.088,571.321s-10.239-1.709-16.1-.732-6.585,11.7-6.585,11.7-16.588,5.852-22.2,3.938l.977-2.685s-14.87,4.631-13.169-11c0,0-15.367,11.7-15.367,20s8.782,12.177,8.782,12.177,38.271,1.292,38.539,1.221c8.782-2.441-.244,0-.244,0l-15.855,23.9,14.634,20.242,15.611-11.46s1.953-10.736,7.089-16.1c3.654-3.836,8.436-21.1,10.87-30.654a15.675,15.675,0,0,0-1.772-11.964Z" transform="translate(-521.39 -525.689)" fill="#404040"/>
      <path id="Path_4024" data-name="Path 4024" d="M690.55,579.34s13.657,8.538,18.541,9.759,17.565,5.608,17.565,5.608l5.119,17.328s1.953,13.17,0,20.479,6.585,40.492,6.585,40.492-7.877,3.638-18.785,0c-.733-.244-8.05-19.265-7.089-21.463L712,670.808s0,28.047,3.938,33.868a45.178,45.178,0,0,0,9.027,9.759l-7.806.976s-22.463-36.8-24.173-49.7.977-62.687.977-62.687l-2.442-3.418S696.647,586.413,690.55,579.34Z" transform="translate(-548.554 -527.612)" fill="#404040"/>
      <path id="Path_4025" data-name="Path 4025" d="M594.11,702.539S577.767,678.91,578.5,667.883c0,0-1.953,15.123-4.143,16.1s-24.149-5.86-24.149-5.86-.977-7.088,1.465-9.515,10-47.565,10-47.565,2.686-12.192,14.39-12.925S614.117,666.9,614.117,666.9,618.015,702.539,594.11,702.539Z" transform="translate(-518.708 -533.722)" fill="#404040"/>
      <path id="Path_4026" data-name="Path 4026" d="M555.3,687.11s.488,34.144-5.608,39.759,17.808,8.538,17.808,8.538-4.143-8.294-.733-14.878,5.608-33.419,5.608-33.419Z" transform="translate(-518.427 -550.498)" fill="#ffbdc6"/>
      <path id="Path_4028" data-name="Path 4028" d="M550.512,736.752s-2.442-6.1-9.026-1.221c0,0-5.852,13.657-16.1,15.611s-1.465,7.806-.977,8.049,17.076,2.93,20.975,1.709,19.762-4.135,19.762-4.135-.732-16.1-3.151-17.328S560.759,746.746,550.512,736.752Z" transform="translate(-512.427 -560.381)" fill="#453939"/>
      <path id="Path_4029" data-name="Path 4029" d="M614.925,542.689a113.522,113.522,0,0,0,6.648,9.27,2.576,2.576,0,0,1-.37,3.7l-.953.748a2.576,2.576,0,0,1-3.67-.512,29.076,29.076,0,0,0-7.877-7.459,2.575,2.575,0,0,1-.236-4.206l2.717-2.143a2.575,2.575,0,0,1,3.741.6Z" transform="translate(-530.913 -519.584)" fill="#343434"/>
      <circle id="Ellipse_840" data-name="Ellipse 840" cx="19.51" cy="19.51" r="19.51" transform="translate(105.656 16.364)" fill="#ffbdc6"/>
      <path id="Path_4032" data-name="Path 4032" d="M653.992,539.575c1.843-.307,3.481-1.386,5.348-1.481,2.363-.118,4.5,1.394,6.16,2.953s3.276,3.34,5.56,4.017a13.769,13.769,0,0,0,4.458.3,4.148,4.148,0,0,0,2.362-.6,2.979,2.979,0,0,0,.788-1.2,11.462,11.462,0,0,0-.071-9.286,1.575,1.575,0,0,1-.221-1.008,1.524,1.524,0,0,1,.338-.56c1.576-1.858,3.238-3.717,3.876-5.97s-.142-5.025-2.466-6.026a4.643,4.643,0,0,0-3.67,0c-1.087.5-1.93,1.418-3.15,1.662-1.977.41-3.671-1.181-5.215-2.363a15.646,15.646,0,0,0-8.167-3.024,8.017,8.017,0,0,0-3.867.512,15.447,15.447,0,0,0-3.151,2.363c-3.521,2.843-8.451,3.639-12.862,5.19-.843.3-1.781.741-1.938,1.575s.788,1.678,1.733,2.041A6.342,6.342,0,0,1,642.5,530c.787.945.535,2.284.677,3.474.291,2.363,2.363,3.647,4.655,4.332C649.62,538.346,652.109,539.89,653.992,539.575Z" transform="translate(-537.411 -514.359)" fill="#a66477"/>
      <path id="Path_4033" data-name="Path 4033" d="M638.29,664.84s13.933,2.363,17.414,9.885S680.121,702.6,680.121,702.6" transform="translate(-537.455 -545.77)" opacity="0.05"/>
      <path id="Path_4038" data-name="Path 4038" d="M661.119,733.468s.977-19.509-23.9-19.266-.976,0-.976,0-9.759-2.929-21.951,3.938-26.1,5.364-26.1,5.364-11.224,18.541-.732,23.9,13.9-1.993,13.9-1.993,21.462,4.143,26.346-1.465a25.039,25.039,0,0,0,27.071,5.4S666.971,743.951,661.119,733.468Z" transform="translate(-525.706 -556.121)" fill="#404040"/>
    </g>
  </g>
</svg>
